<svg width="220" height="64" viewBox="0 0 220 64" fill="none" xmlns="http://www.w3.org/2000/svg">
  <!-- Fundo transparente -->
  <rect width="220" height="64" fill="none"/>

  <!-- Ícone: semi-cérebro de circuito -->
  <g transform="translate(8,8)">
    <!-- Contorno principal -->
    <path
      d="M24 0C12 0 2 10 2 22C2 34 12 44 24 44C36 44 46 34 46 22C46 10 36 0 24 0Z"
      stroke="#A855F7"
      stroke-width="2.2"
      fill="none"
    />
    <!-- Trilhas internas -->
    <path d="M12 10 L18 14 L18 22 L12 28" stroke="#22D3EE" stroke-width="1.4" stroke-linecap="round"/>
    <path d="M24 6 L24 14 L30 18 L34 24" stroke="#22D3EE" stroke-width="1.4" stroke-linecap="round"/>
    <path d="M18 32 L24 28 L30 30 L36 34" stroke="#22D3EE" stroke-width="1.4" stroke-linecap="round"/>

    <!-- Nós -->
    <circle cx="12" cy="10" r="2.1" fill="#22D3EE"/>
    <circle cx="18" cy="14" r="2.1" fill="#22D3EE"/>
    <circle cx="24" cy="6" r="2.1" fill="#22D3EE"/>
    <circle cx="30" cy="18" r="2.1" fill="#22D3EE"/>
    <circle cx="34" cy="24" r="2.1" fill="#22D3EE"/>
    <circle cx="24" cy="28" r="2.1" fill="#22D3EE"/>
  </g>

  <!-- Texto: SEQUENCE RETENTION -->
  <g transform="translate(70,18)">
    <text x="0" y="10"
      font-family="system-ui, -apple-system, BlinkMacSystemFont, 'Segoe UI', sans-serif"
      font-size="12"
      letter-spacing="0.18em"
      fill="#9CA3AF"
      style="text-transform: uppercase;">
      SEQUENCE
    </text>
    <text x="0" y="30"
      font-family="system-ui, -apple-system, BlinkMacSystemFont, 'Segoe UI', sans-serif"
      font-size="18"
      letter-spacing="0.12em"
      fill="#E5E7EB"
      style="text-transform: uppercase;">
      RETENTION
    </text>
  </g>
</svg>
